<mxfile>
    <diagram id="8cFShzUICTLFrNP6ytMb" name="Page-1">
        <mxGraphModel dx="645" dy="260" grid="1" gridSize="10" guides="1" tooltips="1" connect="1" arrows="1" fold="1" page="1" pageScale="1" pageWidth="827" pageHeight="1169" math="0" shadow="0">
            <root>
                <mxCell id="0"/>
                <mxCell id="1" parent="0"/>
                <mxCell id="4" value="" style="edgeStyle=orthogonalEdgeStyle;rounded=0;orthogonalLoop=1;jettySize=auto;html=1;" parent="1" source="2" target="3" edge="1">
                    <mxGeometry relative="1" as="geometry"/>
                </mxCell>
                <mxCell id="2" value="Inicio" style="ellipse;whiteSpace=wrap;html=1;fillColor=#60a917;strokeColor=#2D7600;fontColor=#ffffff;" parent="1" vertex="1">
                    <mxGeometry x="270" y="10" width="120" height="80" as="geometry"/>
                </mxCell>
                <mxCell id="6" value="" style="edgeStyle=orthogonalEdgeStyle;rounded=0;orthogonalLoop=1;jettySize=auto;html=1;" parent="1" source="3" target="5" edge="1">
                    <mxGeometry relative="1" as="geometry"/>
                </mxCell>
                <mxCell id="3" value="Programa para el valor total del producto" style="shape=document;whiteSpace=wrap;html=1;boundedLbl=1;fontColor=#ffffff;strokeColor=#001DBC;fillColor=#0050ef;" parent="1" vertex="1">
                    <mxGeometry x="270" y="120" width="120" height="80" as="geometry"/>
                </mxCell>
                <mxCell id="13" value="" style="edgeStyle=orthogonalEdgeStyle;rounded=0;orthogonalLoop=1;jettySize=auto;html=1;" parent="1" source="5" target="7" edge="1">
                    <mxGeometry relative="1" as="geometry"/>
                </mxCell>
                <mxCell id="5" value="Ingrese el nombre del producto" style="shape=document;whiteSpace=wrap;html=1;boundedLbl=1;fontColor=#ffffff;strokeColor=#001DBC;fillColor=#0050ef;" parent="1" vertex="1">
                    <mxGeometry x="270" y="230" width="120" height="80" as="geometry"/>
                </mxCell>
                <mxCell id="10" value="" style="edgeStyle=orthogonalEdgeStyle;rounded=0;orthogonalLoop=1;jettySize=auto;html=1;" parent="1" source="7" target="9" edge="1">
                    <mxGeometry relative="1" as="geometry"/>
                </mxCell>
                <mxCell id="7" value="Se guarda el nombre_producto" style="shape=parallelogram;perimeter=parallelogramPerimeter;whiteSpace=wrap;html=1;fixedSize=1;fillColor=#008a00;strokeColor=#005700;fontColor=#ffffff;" parent="1" vertex="1">
                    <mxGeometry x="270" y="340" width="120" height="60" as="geometry"/>
                </mxCell>
                <mxCell id="14" value="" style="edgeStyle=orthogonalEdgeStyle;rounded=0;orthogonalLoop=1;jettySize=auto;html=1;" parent="1" source="9" target="11" edge="1">
                    <mxGeometry relative="1" as="geometry"/>
                </mxCell>
                <mxCell id="9" value="Digite el codigo" style="shape=document;whiteSpace=wrap;html=1;boundedLbl=1;fontColor=#ffffff;strokeColor=#001DBC;fillColor=#0050ef;" parent="1" vertex="1">
                    <mxGeometry x="270" y="430" width="120" height="80" as="geometry"/>
                </mxCell>
                <mxCell id="16" value="" style="edgeStyle=orthogonalEdgeStyle;rounded=0;orthogonalLoop=1;jettySize=auto;html=1;" parent="1" source="11" target="15" edge="1">
                    <mxGeometry relative="1" as="geometry"/>
                </mxCell>
                <mxCell id="11" value="Se guarde el codigo" style="shape=parallelogram;perimeter=parallelogramPerimeter;whiteSpace=wrap;html=1;fixedSize=1;fillColor=#008a00;strokeColor=#005700;fontColor=#ffffff;" parent="1" vertex="1">
                    <mxGeometry x="270" y="540" width="120" height="60" as="geometry"/>
                </mxCell>
                <mxCell id="20" value="" style="edgeStyle=orthogonalEdgeStyle;rounded=0;orthogonalLoop=1;jettySize=auto;html=1;" edge="1" parent="1" source="15" target="19">
                    <mxGeometry relative="1" as="geometry"/>
                </mxCell>
                <mxCell id="15" value="Digite el costo de produccion" style="shape=document;whiteSpace=wrap;html=1;boundedLbl=1;fontColor=#ffffff;strokeColor=#001DBC;fillColor=#0050ef;" parent="1" vertex="1">
                    <mxGeometry x="270" y="630" width="120" height="80" as="geometry"/>
                </mxCell>
                <mxCell id="17" value="&lt;h1&gt;Definicion del problema&amp;nbsp;&lt;/h1&gt;&lt;div&gt;poder calcular el valor del producto, incluyendo 120% como utlidad y un 15% de impuestos&lt;/div&gt;" style="text;html=1;strokeColor=none;fillColor=none;spacing=5;spacingTop=-20;whiteSpace=wrap;overflow=hidden;rounded=0;" parent="1" vertex="1">
                    <mxGeometry x="10" y="10" width="190" height="120" as="geometry"/>
                </mxCell>
                <mxCell id="18" value="&lt;h1&gt;Analisis&lt;/h1&gt;&lt;div&gt;&lt;ul&gt;&lt;li&gt;&lt;b style=&quot;font-size: 13px&quot;&gt;&lt;font style=&quot;font-size: 13px ; background-color: rgb(255 , 102 , 102)&quot;&gt;Dato resultado&lt;/font&gt;: &lt;/b&gt;valor total del producto.&lt;/li&gt;&lt;li&gt;&lt;b style=&quot;font-size: 13px&quot;&gt;&lt;font style=&quot;font-size: 13px&quot; color=&quot;#ff6666&quot;&gt;Datos entrada:&lt;/font&gt; &lt;/b&gt;nombre, codigo y costo de producción&lt;/li&gt;&lt;li&gt;&lt;font color=&quot;#ff6666&quot;&gt;Procedimiento:&lt;/font&gt; costo de producción * 0.35&lt;/li&gt;&lt;/ul&gt;&lt;div&gt;p&lt;/div&gt;&lt;/div&gt;" style="text;html=1;strokeColor=none;fillColor=none;spacing=5;spacingTop=-20;whiteSpace=wrap;overflow=hidden;rounded=0;" parent="1" vertex="1">
                    <mxGeometry x="10" y="150" width="210" height="200" as="geometry"/>
                </mxCell>
                <mxCell id="22" value="" style="edgeStyle=orthogonalEdgeStyle;rounded=0;orthogonalLoop=1;jettySize=auto;html=1;" edge="1" parent="1" source="19" target="21">
                    <mxGeometry relative="1" as="geometry"/>
                </mxCell>
                <mxCell id="19" value="Se guarda el costo_producc" style="shape=parallelogram;perimeter=parallelogramPerimeter;whiteSpace=wrap;html=1;fixedSize=1;fontColor=#ffffff;strokeColor=#005700;fillColor=#008a00;" vertex="1" parent="1">
                    <mxGeometry x="270" y="730" width="120" height="60" as="geometry"/>
                </mxCell>
                <mxCell id="24" value="" style="edgeStyle=orthogonalEdgeStyle;rounded=0;orthogonalLoop=1;jettySize=auto;html=1;" edge="1" parent="1" source="21" target="23">
                    <mxGeometry relative="1" as="geometry"/>
                </mxCell>
                <mxCell id="21" value="Valor_neto = costo_producc+(costo_producc * 1.20)&amp;nbsp;&lt;br&gt;utilidad = Valor_neto + (costo_producc * 0.35)" style="whiteSpace=wrap;html=1;fontColor=#ffffff;strokeColor=#006EAF;fillColor=#1ba1e2;" vertex="1" parent="1">
                    <mxGeometry x="210" y="820" width="330" height="60" as="geometry"/>
                </mxCell>
                <mxCell id="26" value="" style="edgeStyle=orthogonalEdgeStyle;rounded=0;orthogonalLoop=1;jettySize=auto;html=1;" edge="1" parent="1" source="23" target="25">
                    <mxGeometry relative="1" as="geometry"/>
                </mxCell>
                <mxCell id="23" value="&quot;El costo total del producto es de : &quot;, utilidad" style="shape=document;whiteSpace=wrap;html=1;boundedLbl=1;fontColor=#ffffff;strokeColor=#006EAF;fillColor=#1ba1e2;" vertex="1" parent="1">
                    <mxGeometry x="270" y="920" width="120" height="80" as="geometry"/>
                </mxCell>
                <mxCell id="25" value="Fin" style="ellipse;whiteSpace=wrap;html=1;fontColor=#ffffff;strokeColor=#2D7600;fillColor=#60a917;" vertex="1" parent="1">
                    <mxGeometry x="270" y="1070" width="120" height="60" as="geometry"/>
                </mxCell>
            </root>
        </mxGraphModel>
    </diagram>
</mxfile>